<svg id="Layer_1" data-name="Layer 1" xmlns="http://www.w3.org/2000/svg" viewBox="0 0 1080 411.02"><path d="M112.38,178.88V274.2h-20V135.81c4.18,0,8.4-.45,12.43.21,1.87.3,3.64,2.59,5,4.33q20.12,25.72,40.08,51.57,14.17,18.27,28.38,36.55c1,1.28,2.11,2.47,4.11,4.8v-97h20.16V274.65c-4.24,0-8.46.46-12.49-.2-1.89-.3-3.71-2.53-5.07-4.27q-26.72-34.25-53.29-68.6-8.94-11.51-17.89-23Z"/><path d="M874.83,274V254.44H882c12,0,24.09.13,36.14,0,25.41-.35,45.28-17.6,49.15-42.5,4.24-27.23-16.86-53.87-44.49-55.67-9.21-.6-18.5-.1-28.43-.1V215H875.07c-1.38-4.71-1.94-62-.72-78.85,1.71-.12,3.51-.35,5.32-.35,13.1,0,26.21-.1,39.31,0a69.89,69.89,0,0,1,69.24,68.4c.72,35.69-27.13,67.21-62.73,69.86-16,1.18-32.09.49-48.14.6A10.37,10.37,0,0,1,874.83,274Z"/><path d="M345.29,135.91H365c.12,2.42.31,4.63.32,6.85,0,24.09-.13,48.18.06,72.27.15,18.08,11.43,32.36,28.84,37.16,22.36,6.16,45.23-6,50.67-27.15a58,58,0,0,0,1.6-13.79c.15-22.6.07-45.22.07-67.83v-7.3h19.73a40.31,40.31,0,0,1,.54,4.76c0,23.88.24,47.76,0,71.63-.41,36.66-30,64-66.56,61.94-25-1.4-48.15-21.77-53.68-47.46a62.4,62.4,0,0,1-1.46-12.54C345,189.72,345,165,345,140.28,345,139,345.18,137.81,345.29,135.91Z"/><path d="M609.74,135.94h19.93v7c0,23.88-.12,47.76,0,71.63.13,18.39,11.53,32.9,29.11,37.61,22.19,5.95,44.72-6,50.28-26.9a58.5,58.5,0,0,0,1.72-14.4c.17-22.61.08-45.22.08-67.83v-7.13h19.83c.17,1.88.44,3.51.45,5.14,0,23.67.16,47.33,0,71-.24,30.15-20.55,55-49.2,61.1-34.59,7.32-64.24-16.13-71-45.91a62.26,62.26,0,0,1-1.53-13.18c-.14-24.51-.07-49-.05-73.53C609.39,139.13,609.6,137.7,609.74,135.94Z"/></svg>